<?xml version="1.0" encoding="UTF-8"?>
<svg xmlns="http://www.w3.org/2000/svg" xmlns:xlink="http://www.w3.org/1999/xlink" width="300px" height="300px" viewBox="0 0 300 300" version="1.1">
<g id="surface1">
<path style=" stroke:none;fill-rule:nonzero;fill:rgb(47.058824%,46.666667%,50.196081%);fill-opacity:1;" d="M 258.847656 206.542969 L 258.832031 214.453125 C 258.820312 219.769531 263.109375 224.089844 268.40625 224.097656 C 273.707031 224.109375 278.011719 219.808594 278.023438 214.492188 L 278.039062 206.582031 "/>
<path style=" stroke:none;fill-rule:nonzero;fill:rgb(47.058824%,46.666667%,50.196081%);fill-opacity:1;" d="M 184.679688 208.332031 L 184.664062 216.242188 C 184.65625 221.558594 188.941406 225.875 194.242188 225.886719 C 199.542969 225.898438 203.847656 221.597656 203.859375 216.28125 L 203.875 208.367188 "/>
<path style=" stroke:none;fill-rule:nonzero;fill:rgb(47.058824%,46.666667%,50.196081%);fill-opacity:1;" d="M 221.804688 208.410156 L 221.789062 216.324219 C 221.78125 221.640625 226.066406 225.957031 231.367188 225.96875 C 236.667969 225.980469 240.972656 221.679688 240.984375 216.363281 L 241 208.449219 "/>
<path style=" stroke:none;fill-rule:nonzero;fill:rgb(47.058824%,46.666667%,50.196081%);fill-opacity:1;" d="M 41.605469 208.042969 L 41.589844 215.957031 C 41.582031 221.273438 45.867188 225.589844 51.167969 225.601562 C 56.46875 225.609375 60.773438 221.308594 60.785156 215.992188 L 60.800781 208.082031 "/>
<path style=" stroke:none;fill-rule:nonzero;fill:rgb(47.058824%,46.666667%,50.196081%);fill-opacity:1;" d="M 81.960938 208.125 L 81.945312 216.035156 C 81.9375 221.351562 86.222656 225.671875 91.523438 225.679688 C 96.824219 225.691406 101.128906 221.390625 101.140625 216.074219 L 101.15625 208.164062 "/>
<path style=" stroke:none;fill-rule:nonzero;fill:rgb(89.019608%,82.745099%,80.784315%);fill-opacity:1;" d="M 132.78125 92.285156 L 114.039062 74.03125 L 101.398438 86.929688 L 119.894531 105.785156 "/>
<path style=" stroke:none;fill-rule:nonzero;fill:rgb(89.019608%,82.745099%,80.784315%);fill-opacity:1;" d="M 279.507812 202.414062 C 276.699219 203.269531 273.621094 204.121094 270.253906 204.949219 C 260.675781 207.296875 250.839844 208.472656 240.984375 208.453125 L 74.980469 208.121094 L 73.820312 208.121094 L 60.679688 208.09375 C 46.949219 208.066406 38.398438 208.046875 38.398438 208.046875 C 15.304688 204.042969 0.433594 181.496094 6.121094 158.886719 L 7.699219 152.625 L 9.8125 144.21875 L 19.738281 104.707031 L 46.582031 104.757812 L 50.253906 113.882812 C 58.773438 135.058594 86.210938 140.449219 102.058594 124.050781 L 132.777344 92.28125 C 132.777344 92.28125 193.53125 154.945312 274.292969 159.121094 C 276.992188 159.265625 279.609375 159.914062 282.027344 161.003906 C 284.445312 162.09375 286.675781 163.628906 288.59375 165.539062 C 292.273438 169.214844 294.328125 173.710938 294.921875 178.300781 C 296.246094 188.445312 290.480469 199.066406 279.507812 202.414062 Z M 279.507812 202.414062 "/>
<path style=" stroke:none;fill-rule:nonzero;fill:rgb(41.176471%,38.82353%,38.82353%);fill-opacity:1;" d="M 73.820312 208.121094 L 60.679688 208.09375 C 46.949219 208.066406 38.398438 208.046875 38.398438 208.046875 C 15.304688 204.042969 0.433594 181.496094 6.121094 158.886719 L 7.699219 152.625 L 9.8125 144.21875 L 16.230469 145.777344 C 44.28125 156.085938 65.699219 179.265625 73.8125 208.105469 Z M 73.820312 208.121094 "/>
<path style=" stroke:none;fill-rule:nonzero;fill:rgb(100%,100%,100%);fill-opacity:1;" d="M 279.507812 202.414062 C 276.699219 203.269531 273.621094 204.121094 270.253906 204.949219 C 260.675781 207.296875 250.839844 208.472656 240.984375 208.453125 L 74.980469 208.121094 C 70.617188 195.847656 66.007812 187.691406 66.007812 187.691406 L 126.054688 187.691406 C 161.410156 186.929688 217.152344 189.625 252.378906 186.433594 C 266.734375 185.15625 281.082031 182.582031 294.921875 178.300781 C 296.246094 188.445312 290.480469 199.066406 279.507812 202.414062 Z M 279.507812 202.414062 "/>
<path style=" stroke:none;fill-rule:nonzero;fill:rgb(23.529412%,22.745098%,25.490198%);fill-opacity:1;" d="M 299.792969 177.84375 C 299.792969 177.832031 299.789062 177.816406 299.789062 177.804688 C 299.054688 171.945312 296.40625 166.425781 292.050781 162.074219 C 289.722656 159.753906 287.027344 157.890625 284.03125 156.539062 C 281.011719 155.183594 277.824219 154.410156 274.546875 154.238281 C 248.273438 152.878906 224.1875 145.015625 204.351562 135.734375 C 205.199219 133.9375 204.898438 131.730469 203.429688 130.230469 C 201.539062 128.300781 198.441406 128.265625 196.511719 130.15625 L 195.351562 131.289062 C 190.289062 128.65625 185.578125 125.976562 181.246094 123.351562 C 181.535156 121.816406 181.085938 120.171875 179.902344 118.984375 C 178.171875 117.253906 175.464844 117.09375 173.550781 118.5 C 169.007812 115.523438 164.8125 112.574219 161.003906 109.757812 C 162.074219 107.890625 161.816406 105.46875 160.222656 103.875 C 158.320312 101.96875 155.234375 101.964844 153.324219 103.855469 C 142.539062 95.257812 136.386719 88.972656 136.292969 88.878906 C 136.269531 88.851562 136.242188 88.832031 136.21875 88.808594 C 136.210938 88.800781 136.203125 88.789062 136.191406 88.78125 L 117.453125 70.527344 C 115.523438 68.648438 112.433594 68.683594 110.546875 70.609375 L 97.902344 83.507812 C 96.039062 85.410156 96.039062 88.457031 97.90625 90.359375 L 112.980469 105.722656 L 98.542969 120.652344 C 93.488281 125.882812 86.738281 128.765625 79.542969 128.765625 C 68.589844 128.765625 58.875 122.207031 54.789062 112.058594 L 51.121094 102.9375 C 50.375 101.089844 48.585938 99.875 46.59375 99.871094 L 19.75 99.820312 C 19.746094 99.820312 19.742188 99.820312 19.738281 99.820312 C 17.496094 99.820312 15.542969 101.34375 14.996094 103.515625 L 1.378906 157.695312 C -1.6875 169.875 0.398438 182.390625 7.246094 192.929688 C 13.921875 203.199219 24.625 210.359375 36.703125 212.695312 L 36.699219 215.945312 C 36.683594 223.949219 43.167969 230.472656 51.15625 230.492188 C 51.167969 230.492188 51.175781 230.492188 51.1875 230.492188 C 55.046875 230.492188 58.679688 228.988281 61.414062 226.253906 C 64.152344 223.519531 65.664062 219.878906 65.671875 216.003906 L 65.679688 212.992188 L 77.058594 213.015625 L 77.054688 216.027344 C 77.046875 219.902344 78.542969 223.546875 81.269531 226.292969 C 84.003906 229.046875 87.640625 230.5625 91.511719 230.570312 C 91.523438 230.570312 91.53125 230.570312 91.542969 230.570312 C 95.402344 230.570312 99.035156 229.066406 101.769531 226.335938 C 104.507812 223.597656 106.019531 219.957031 106.027344 216.082031 L 106.035156 213.074219 L 179.777344 213.222656 L 179.773438 216.230469 C 179.765625 220.105469 181.261719 223.753906 183.988281 226.5 C 186.71875 229.25 190.359375 230.769531 194.230469 230.777344 C 194.242188 230.777344 194.25 230.777344 194.261719 230.777344 C 198.121094 230.777344 201.753906 229.273438 204.488281 226.539062 C 207.226562 223.804688 208.738281 220.164062 208.746094 216.289062 L 208.753906 213.28125 L 216.902344 213.296875 L 216.898438 216.3125 C 216.890625 220.1875 218.386719 223.832031 221.113281 226.582031 C 223.847656 229.332031 227.484375 230.851562 231.355469 230.859375 C 231.367188 230.859375 231.375 230.859375 231.386719 230.859375 C 235.25 230.859375 238.878906 229.355469 241.613281 226.621094 C 244.351562 223.886719 245.867188 220.246094 245.871094 216.371094 L 245.878906 213.25 C 248.570312 213.152344 251.261719 212.964844 253.941406 212.695312 L 253.9375 214.445312 C 253.921875 222.449219 260.40625 228.976562 268.394531 228.992188 C 268.40625 228.992188 268.414062 228.992188 268.425781 228.992188 C 272.285156 228.992188 275.917969 227.488281 278.652344 224.753906 C 281.390625 222.019531 282.90625 218.378906 282.910156 214.503906 L 282.925781 206.589844 C 282.925781 206.523438 282.921875 206.460938 282.917969 206.394531 C 291.027344 203.226562 297.035156 196.421875 299.179688 187.832031 C 300.015625 184.492188 300.199219 181.117188 299.792969 177.84375 Z M 108.246094 86.929688 L 114.121094 80.9375 L 125.875 92.386719 L 119.78125 98.6875 Z M 55.890625 215.984375 C 55.890625 217.25 55.394531 218.441406 54.5 219.335938 C 53.613281 220.222656 52.4375 220.707031 51.1875 220.707031 C 51.183594 220.707031 51.179688 220.707031 51.175781 220.707031 C 48.582031 220.703125 46.476562 218.574219 46.480469 215.964844 L 46.488281 212.957031 L 55.898438 212.976562 Z M 61.03125 203.203125 C 60.957031 203.199219 60.882812 203.191406 60.808594 203.191406 C 60.738281 203.191406 60.667969 203.199219 60.59375 203.203125 L 41.839844 203.164062 C 41.765625 203.160156 41.691406 203.152344 41.617188 203.152344 C 41.613281 203.152344 41.609375 203.152344 41.605469 203.152344 C 41.53125 203.152344 41.460938 203.160156 41.390625 203.164062 L 38.835938 203.15625 C 29.105469 201.359375 20.8125 195.847656 15.449219 187.597656 C 10.101562 179.367188 8.472656 169.59375 10.867188 160.082031 L 13.414062 149.949219 L 14.542969 150.363281 C 38.992188 159.351562 58.238281 178.851562 67.09375 203.214844 Z M 96.246094 216.066406 C 96.246094 217.332031 95.75 218.523438 94.859375 219.414062 C 93.96875 220.300781 92.792969 220.789062 91.542969 220.789062 C 91.539062 220.789062 91.535156 220.789062 91.53125 220.789062 C 90.28125 220.789062 89.101562 220.292969 88.214844 219.402344 C 87.324219 218.503906 86.835938 217.3125 86.835938 216.046875 L 86.84375 213.035156 L 96.253906 213.054688 Z M 198.964844 216.269531 C 198.964844 217.539062 198.46875 218.726562 197.578125 219.621094 C 196.6875 220.507812 195.511719 220.996094 194.261719 220.996094 C 194.257812 220.996094 194.253906 220.996094 194.25 220.996094 C 192.996094 220.992188 191.820312 220.5 190.933594 219.605469 C 190.042969 218.710938 189.554688 217.519531 189.554688 216.25 L 189.5625 213.242188 L 198.972656 213.261719 Z M 236.09375 216.351562 C 236.089844 217.621094 235.597656 218.808594 234.703125 219.703125 C 233.816406 220.589844 232.636719 221.074219 231.386719 221.074219 C 231.382812 221.074219 231.378906 221.074219 231.378906 221.074219 C 230.125 221.074219 228.945312 220.582031 228.058594 219.6875 C 227.167969 218.792969 226.679688 217.597656 226.683594 216.332031 L 226.6875 213.316406 L 236.097656 213.335938 Z M 273.132812 214.484375 C 273.128906 215.75 272.636719 216.941406 271.742188 217.835938 C 270.855469 218.71875 269.675781 219.207031 268.425781 219.207031 C 268.421875 219.207031 268.417969 219.207031 268.417969 219.207031 C 265.820312 219.203125 263.714844 217.074219 263.722656 214.464844 L 263.726562 211.332031 C 266.308594 210.867188 268.875 210.324219 271.421875 209.699219 C 272 209.558594 272.570312 209.410156 273.140625 209.265625 Z M 278.085938 197.734375 C 275.25 198.597656 272.21875 199.429688 269.085938 200.199219 C 259.992188 202.433594 250.621094 203.5625 241.230469 203.5625 L 241.09375 203.5625 C 241.066406 203.5625 241.039062 203.558594 241.007812 203.558594 C 241.003906 203.558594 241 203.558594 241 203.558594 C 240.972656 203.558594 240.945312 203.5625 240.917969 203.5625 L 221.902344 203.523438 C 221.875 203.523438 221.84375 203.519531 221.816406 203.519531 C 221.8125 203.519531 221.808594 203.519531 221.804688 203.519531 C 221.777344 203.519531 221.75 203.523438 221.71875 203.523438 L 204.097656 203.492188 C 204.023438 203.488281 203.953125 203.480469 203.882812 203.480469 C 203.878906 203.480469 203.875 203.480469 203.871094 203.480469 C 203.800781 203.480469 203.734375 203.488281 203.664062 203.488281 L 184.90625 203.453125 C 184.835938 203.449219 184.761719 203.441406 184.6875 203.441406 C 184.683594 203.441406 184.683594 203.441406 184.679688 203.441406 C 184.609375 203.441406 184.539062 203.449219 184.46875 203.449219 L 101.382812 203.285156 C 101.308594 203.28125 101.238281 203.273438 101.164062 203.273438 C 101.160156 203.273438 101.15625 203.273438 101.152344 203.273438 C 101.082031 203.273438 101.011719 203.28125 100.941406 203.28125 L 82.191406 203.246094 C 82.117188 203.242188 82.046875 203.234375 81.972656 203.234375 C 81.96875 203.234375 81.964844 203.234375 81.960938 203.234375 C 81.890625 203.234375 81.820312 203.242188 81.746094 203.242188 L 77.441406 203.234375 C 76.242188 199.519531 74.828125 195.902344 73.210938 192.390625 C 85.667969 192.308594 98.332031 192.351562 110.992188 192.53125 C 111.015625 192.53125 111.039062 192.53125 111.0625 192.53125 C 113.730469 192.53125 115.914062 190.386719 115.953125 187.710938 C 115.992188 185.007812 113.832031 182.789062 111.128906 182.75 C 96.675781 182.542969 82.199219 182.511719 68.050781 182.644531 C 56.632812 163.738281 39.015625 148.9375 17.914062 141.183594 L 15.808594 140.410156 L 23.550781 109.609375 L 43.273438 109.648438 L 45.714844 115.707031 C 51.296875 129.582031 64.574219 138.546875 79.542969 138.546875 C 89.414062 138.546875 98.660156 134.605469 105.574219 127.449219 L 122.554688 109.894531 C 122.824219 109.71875 123.082031 109.511719 123.320312 109.277344 C 123.617188 108.988281 123.863281 108.664062 124.070312 108.324219 L 132.886719 99.207031 C 135.773438 101.910156 140.324219 105.992188 146.34375 110.828125 L 138.246094 118.914062 C 136.335938 120.824219 136.332031 123.921875 138.242188 125.832031 C 139.199219 126.789062 140.449219 127.265625 141.703125 127.265625 C 142.953125 127.265625 144.207031 126.789062 145.160156 125.835938 L 154.140625 116.863281 C 157.867188 119.640625 161.972656 122.558594 166.429688 125.523438 L 157.925781 134.023438 C 156.011719 135.933594 156.011719 139.03125 157.921875 140.941406 C 158.875 141.898438 160.128906 142.375 161.382812 142.375 C 162.632812 142.375 163.882812 141.898438 164.839844 140.945312 L 174.867188 130.925781 C 178.921875 133.410156 183.308594 135.953125 188.007812 138.476562 L 181.300781 145.042969 C 179.371094 146.929688 179.335938 150.027344 181.226562 151.957031 C 182.183594 152.9375 183.453125 153.429688 184.722656 153.429688 C 185.957031 153.429688 187.191406 152.964844 188.144531 152.03125 L 197.203125 143.164062 C 218.550781 153.507812 244.972656 162.507812 274.03125 164.007812 C 276.09375 164.117188 278.109375 164.605469 280.011719 165.460938 C 281.921875 166.324219 283.648438 167.515625 285.136719 168.996094 C 286.867188 170.730469 288.171875 172.75 289.027344 174.933594 C 277.472656 178.171875 265.023438 180.398438 251.9375 181.5625 C 229.910156 183.558594 204.660156 183.222656 180.238281 182.898438 C 165.644531 182.707031 151.863281 182.523438 138.785156 182.804688 C 136.085938 182.863281 133.941406 185.101562 134 187.804688 C 134.058594 190.503906 136.320312 192.667969 138.996094 192.585938 C 151.90625 192.308594 165.605469 192.488281 180.105469 192.683594 C 189.355469 192.804688 198.71875 192.929688 208.003906 192.929688 C 223.480469 192.929688 238.730469 192.582031 252.808594 191.308594 C 265.800781 190.152344 278.210938 187.976562 289.820312 184.851562 C 289.777344 185.054688 289.738281 185.261719 289.6875 185.464844 C 288.214844 191.378906 283.875 195.964844 278.085938 197.734375 Z M 278.085938 197.734375 "/>
</g>
</svg>
